<?xml version="1.0" encoding="UTF-8"?>
<svg width="189px" height="31px" viewBox="0 0 189 31" version="1.1" xmlns="http://www.w3.org/2000/svg" xmlns:xlink="http://www.w3.org/1999/xlink">
    <!-- Generator: Sketch 53.2 (72643) - https://sketchapp.com -->
    <title>Group 3</title>
    <desc>Created with Sketch.</desc>
    <g id="Page-1" stroke="none" stroke-width="1" fill="none" fill-rule="evenodd">
        <g id="Group-3">
            <g id="levels-copy" fill="#000000" fill-rule="nonzero">
                <path d="M3.23106662,13.6410587 L1.4128848,13.6410587 C0.911066622,13.6410587 0.503793894,14.3115587 0.503793894,15.1410587 C0.503793894,15.9705587 0.911066622,16.6410587 1.4128848,16.6410587 L3.23106662,16.6410587 C3.7328848,16.6410587 4.14015753,15.9705587 4.14015753,15.1410587 C4.14015753,14.3115587 3.7328848,13.6410587 3.23106662,13.6410587 Z M43.594703,13.6410587 L37.7765212,13.6410587 C37.274703,13.6410587 36.8674303,14.3115587 36.8674303,15.1410587 C36.8674303,15.9705587 37.274703,16.6410587 37.7765212,16.6410587 L43.594703,16.6410587 C44.0965212,16.6410587 44.5037939,15.9705587 44.5037939,15.1410587 C44.5037939,14.3115587 44.0965212,13.6410587 43.594703,13.6410587 Z" id="Shape"></path>
                <path d="M32.6037939,7.89105871 C32.1069939,7.89105871 31.7037939,8.29615246 31.7037939,8.79730871 L31.7037939,21.4848087 C31.7037939,21.985965 32.1069939,22.3910587 32.6037939,22.3910587 C33.1005939,22.3910587 33.5037939,21.985965 33.5037939,21.4848087 L33.5037939,8.79730871 C33.5037939,8.29615246 33.1005939,7.89105871 32.6037939,7.89105871 Z M14.6037939,7.89105871 C14.1069939,7.89105871 13.7037939,8.29615246 13.7037939,8.79730871 L13.7037939,21.4848087 C13.7037939,21.985965 14.1069939,22.3910587 14.6037939,22.3910587 C15.1005939,22.3910587 15.5037939,21.985965 15.5037939,21.4848087 L15.5037939,8.79730871 C15.5037939,8.29615246 15.1005939,7.89105871 14.6037939,7.89105871 Z M7.40379389,11.5160587 C6.90699389,11.5160587 6.50379389,11.9211525 6.50379389,12.4223087 L6.50379389,17.8598087 C6.50379389,18.360965 6.90699389,18.7660587 7.40379389,18.7660587 C7.90059389,18.7660587 8.30379389,18.360965 8.30379389,17.8598087 L8.30379389,12.4223087 C8.30379389,11.9211525 7.90059389,11.5160587 7.40379389,11.5160587 Z M29.0037939,4.26605871 C28.5069939,4.26605871 28.1037939,4.67115246 28.1037939,5.17230871 L28.1037939,25.1098087 C28.1037939,25.610965 28.5069939,26.0160587 29.0037939,26.0160587 C29.5005939,26.0160587 29.9037939,25.610965 29.9037939,25.1098087 L29.9037939,5.17230871 C29.9037939,4.67115246 29.5005939,4.26605871 29.0037939,4.26605871 Z M21.8037939,4.26605871 C21.3069939,4.26605871 20.9037939,4.67115246 20.9037939,5.17230871 L20.9037939,25.1098087 C20.9037939,25.610965 21.3069939,26.0160587 21.8037939,26.0160587 C22.3005939,26.0160587 22.7037939,25.610965 22.7037939,25.1098087 L22.7037939,5.17230871 C22.7037939,4.67115246 22.3005939,4.26605871 21.8037939,4.26605871 Z M11.0037939,4.26605871 C10.5069939,4.26605871 10.1037939,4.67115246 10.1037939,5.17230871 L10.1037939,25.1098087 C10.1037939,25.610965 10.5069939,26.0160587 11.0037939,26.0160587 C11.5005939,26.0160587 11.9037939,25.610965 11.9037939,25.1098087 L11.9037939,5.17230871 C11.9037939,4.67115246 11.5005939,4.26605871 11.0037939,4.26605871 Z M25.4037939,0.641058714 C24.9069939,0.641058714 24.5037939,1.04615246 24.5037939,1.54730871 L24.5037939,28.7348087 C24.5037939,29.235965 24.9069939,29.6410587 25.4037939,29.6410587 C25.9005939,29.6410587 26.3037939,29.235965 26.3037939,28.7348087 L26.3037939,1.54730871 C26.3037939,1.04615246 25.9005939,0.641058714 25.4037939,0.641058714 Z M18.2037939,0.641058714 C17.7069939,0.641058714 17.3037939,1.04615246 17.3037939,1.54730871 L17.3037939,28.7348087 C17.3037939,29.235965 17.7069939,29.6410587 18.2037939,29.6410587 C18.7005939,29.6410587 19.1037939,29.235965 19.1037939,28.7348087 L19.1037939,1.54730871 C19.1037939,1.04615246 18.7005939,0.641058714 18.2037939,0.641058714 Z" id="Shape"></path>
            </g>
            <path d="M55.464138,6.332 C57.047933,6.332 58.4928671,6.68847202 59.7989837,7.40142675 C61.1051004,8.11438148 62.1283811,9.09101715 62.8688567,10.3313631 C63.6093323,11.571709 63.9795645,12.9536484 63.9795645,14.4772229 C63.9795645,16.0007974 63.6350428,17.3827369 62.9459892,18.6230828 C62.2569355,19.8634287 61.3107865,20.8351812 60.1075137,21.5383694 C58.9042409,22.2415577 57.562149,22.5931465 56.0811979,22.5931465 C54.8882095,22.5931465 53.7775128,22.3587539 52.7490745,21.8899618 C51.7206362,21.4211696 50.8464767,20.7668237 50.1265699,19.9269045 L50.1265699,27.8377325 C50.1265699,28.2869916 49.9825907,28.6483468 49.694628,28.9218089 C49.4066653,29.195271 49.0261488,29.332 48.5530672,29.332 C48.1005544,29.332 47.72518,29.195271 47.4269329,28.9218089 C47.1286858,28.6483468 46.9795645,28.2869916 46.9795645,27.8377325 L46.9795645,14.4772229 C46.9795645,12.9536484 47.3549388,11.571709 48.1056988,10.3313631 C48.8564588,9.09101715 49.8745974,8.11438148 51.1601453,7.40142675 C52.4456931,6.68847202 53.880343,6.332 55.464138,6.332 Z M55.4640715,20.332 C56.4969406,20.332 57.431673,20.0924468 58.2682969,19.6133333 C59.1049208,19.1342198 59.765947,18.4791153 60.2513955,17.648 C60.7368439,16.8168847 60.9795645,15.8831163 60.9795645,14.8466667 C60.9795645,13.810217 60.7368439,12.8715598 60.2513955,12.0306667 C59.765947,11.1897736 59.1049208,10.5297802 58.2682969,10.0506667 C57.431673,9.57155316 56.4969406,9.332 55.4640715,9.332 C54.4312025,9.332 53.4964701,9.57155316 52.6598462,10.0506667 C51.8232223,10.5297802 51.1673603,11.1897736 50.6922406,12.0306667 C50.2171208,12.8715598 49.9795645,13.810217 49.9795645,14.8466667 C49.9795645,15.8831163 50.2171208,16.8168847 50.6922406,17.648 C51.1673603,18.4791153 51.8232223,19.1342198 52.6598462,19.6133333 C53.4964701,20.0924468 54.4312025,20.332 55.4640715,20.332 Z M75.494991,23.332 C73.8494897,23.332 72.378845,22.9908623 71.0830128,22.3085766 C69.7871805,21.6262909 68.7793261,20.6797538 68.0594193,19.4689369 C67.3395125,18.2581201 66.9795645,16.8839596 66.9795645,15.3464144 C66.9795645,13.7896499 67.3395125,12.4058799 68.0594193,11.1950631 C68.7793261,9.9842462 69.7871805,9.03770912 71.0830128,8.35542342 C72.378845,7.67313773 73.8494897,7.332 75.494991,7.332 C77.1199235,7.332 78.5751419,7.67313773 79.8606897,8.35542342 C81.1462376,9.03770912 82.154092,9.9842462 82.8842832,11.1950631 C83.6144744,12.4058799 83.9795645,13.7896499 83.9795645,15.3464144 C83.9795645,16.8839596 83.6196165,18.2581201 82.8997097,19.4689369 C82.1798029,20.6797538 81.1770906,21.6262909 79.8915427,22.3085766 C78.6059949,22.9908623 77.1404923,23.332 75.494991,23.332 Z M75.4950575,20.332 C76.5485838,20.332 77.4936448,20.0973357 78.3302687,19.628 C79.1668926,19.1586643 79.8175903,18.5084486 80.2823814,17.6773333 C80.7471725,16.8462181 80.9795645,15.9026719 80.9795645,14.8466667 C80.9795645,13.7906614 80.7471725,12.8422264 80.2823814,12.0013333 C79.8175903,11.1604402 79.1668926,10.5053357 78.3302687,10.036 C77.4936448,9.56666432 76.5485838,9.332 75.4950575,9.332 C74.4415311,9.332 73.4964701,9.56666432 72.6598462,10.036 C71.8232223,10.5053357 71.1673603,11.1604402 70.6922406,12.0013333 C70.2171208,12.8422264 69.9795645,13.7906614 69.9795645,14.8466667 C69.9795645,15.9026719 70.2171208,16.8462181 70.6922406,17.6773333 C71.1673603,18.5084486 71.8232223,19.1586643 72.6598462,19.628 C73.4964701,20.0973357 74.4415311,20.332 75.4950575,20.332 Z M103.406062,0.332 C103.879143,0.332 104.25966,0.468728994 104.547623,0.742191083 C104.835585,1.01565317 104.979564,1.37700837 104.979564,1.82626752 L104.979564,15.1867771 C104.979564,16.7103516 104.60419,18.092291 103.85343,19.3326369 C103.10267,20.5729828 102.084532,21.5496185 100.798984,22.2625732 C99.5134359,22.975528 98.078786,23.332 96.494991,23.332 C94.911196,23.332 93.4662619,22.975528 92.1601453,22.2625732 C90.8540286,21.5496185 89.8307479,20.5729828 89.0902723,19.3326369 C88.3497967,18.092291 87.9795645,16.7103516 87.9795645,15.1867771 C87.9795645,13.6632026 88.3240862,12.2812631 89.0131398,11.0409172 C89.7021935,9.80057129 90.6483425,8.8288188 91.8516153,8.12563057 C93.0548881,7.42244234 94.39698,7.0708535 95.8779311,7.0708535 C97.0709195,7.0708535 98.1816162,7.30524606 99.2100545,7.77403822 C100.238493,8.24283037 101.112652,8.89717627 101.832559,9.73709554 L101.832559,1.82626752 C101.832559,1.37700837 101.98168,1.01565317 102.279927,0.742191083 C102.578175,0.468728994 102.953549,0.332 103.406062,0.332 Z M96.4950575,20.332 C97.5279265,20.332 98.4626589,20.0924468 99.2992828,19.6133333 C100.135907,19.1342198 100.791769,18.4742264 101.266888,17.6333333 C101.742008,16.7924402 101.979564,15.853783 101.979564,14.8173333 C101.979564,13.7808837 101.742008,12.8471153 101.266888,12.016 C100.791769,11.1848847 100.135907,10.5297802 99.2992828,10.0506667 C98.4626589,9.57155316 97.5279265,9.332 96.4950575,9.332 C95.4621884,9.332 94.527456,9.57155316 93.6908321,10.0506667 C92.8542082,10.5297802 92.1931819,11.1848847 91.7077335,12.016 C91.2222851,12.8471153 90.9795645,13.7808837 90.9795645,14.8173333 C90.9795645,15.853783 91.2222851,16.7924402 91.7077335,17.6333333 C92.1931819,18.4742264 92.8542082,19.1342198 93.6908321,19.6133333 C94.527456,20.0924468 95.4621884,20.332 96.4950575,20.332 Z M118.464138,6.332 C120.047933,6.332 121.492867,6.68847202 122.798984,7.40142675 C124.1051,8.11438148 125.128381,9.09101715 125.868857,10.3313631 C126.609332,11.571709 126.979564,12.9536484 126.979564,14.4772229 C126.979564,16.0007974 126.635043,17.3827369 125.945989,18.6230828 C125.256936,19.8634287 124.310786,20.8351812 123.107514,21.5383694 C121.904241,22.2415577 120.562149,22.5931465 119.081198,22.5931465 C117.888209,22.5931465 116.777513,22.3587539 115.749074,21.8899618 C114.720636,21.4211696 113.846477,20.7668237 113.12657,19.9269045 L113.12657,27.8377325 C113.12657,28.2869916 112.982591,28.6483468 112.694628,28.9218089 C112.406665,29.195271 112.026149,29.332 111.553067,29.332 C111.100554,29.332 110.72518,29.195271 110.426933,28.9218089 C110.128686,28.6483468 109.979564,28.2869916 109.979564,27.8377325 L109.979564,14.4772229 C109.979564,12.9536484 110.354939,11.571709 111.105699,10.3313631 C111.856459,9.09101715 112.874597,8.11438148 114.160145,7.40142675 C115.445693,6.68847202 116.880343,6.332 118.464138,6.332 Z M118.464072,20.332 C119.496941,20.332 120.431673,20.0924468 121.268297,19.6133333 C122.104921,19.1342198 122.765947,18.4791153 123.251395,17.648 C123.736844,16.8168847 123.979564,15.8831163 123.979564,14.8466667 C123.979564,13.810217 123.736844,12.8715598 123.251395,12.0306667 C122.765947,11.1897736 122.104921,10.5297802 121.268297,10.0506667 C120.431673,9.57155316 119.496941,9.332 118.464072,9.332 C117.431203,9.332 116.49647,9.57155316 115.659846,10.0506667 C114.823222,10.5297802 114.16736,11.1897736 113.692241,12.0306667 C113.217121,12.8715598 112.979564,13.810217 112.979564,14.8466667 C112.979564,15.8831163 113.217121,16.8168847 113.692241,17.648 C114.16736,18.4791153 114.823222,19.1342198 115.659846,19.6133333 C116.49647,20.0924468 117.431203,20.332 118.464072,20.332 Z M135.752292,23.332 C134.840166,23.332 134.018205,23.1013152 133.286383,22.6399385 C132.554561,22.1785619 131.987142,21.5306811 131.58411,20.6962766 C131.181078,19.8618721 130.979564,18.9244081 130.979564,17.8838566 L130.979564,1.80447119 C130.979564,1.37254415 131.128048,1.0191546 131.425019,0.744291933 C131.72199,0.46942927 132.103805,0.332 132.570474,0.332 C133.037143,0.332 133.418957,0.46942927 133.715928,0.744291933 C134.012899,1.0191546 134.161383,1.37254415 134.161383,1.80447119 L134.161383,17.8838566 C134.161383,18.6102793 134.309866,19.2090783 134.606837,19.6802714 C134.903808,20.1514646 135.285623,20.3870576 135.752292,20.3870576 L136.547746,20.3870576 C136.971991,20.3870576 137.316684,20.5244869 137.581837,20.7993496 C137.84699,21.0742122 137.979564,21.4276018 137.979564,21.8595288 C137.979564,22.2914559 137.778051,22.6448454 137.375019,22.9197081 C136.971987,23.1945707 136.452295,23.332 135.815928,23.332 L135.752292,23.332 Z M147.494991,7.332 C149.078786,7.332 150.513436,7.68274724 151.798984,8.38425225 C153.084532,9.08575726 154.10267,10.0467086 154.85343,11.2671351 C155.60419,12.4875617 155.979564,13.8473078 155.979564,15.3464144 L155.979564,21.7752432 C155.979564,22.1980682 155.830443,22.5488154 155.532196,22.8274955 C155.233949,23.1061756 154.858575,23.2455135 154.406062,23.2455135 C153.953549,23.2455135 153.578175,23.1061756 153.279927,22.8274955 C152.98168,22.5488154 152.832559,22.1980682 152.832559,21.7752432 L152.832559,20.7085766 C152.112652,21.5350071 151.238493,22.1788445 150.210055,22.6401081 C149.181616,23.1013717 148.07092,23.332 146.877931,23.332 C145.39698,23.332 144.054888,22.9860575 142.851615,22.2941622 C141.648343,21.6022668 140.702193,20.6461202 140.01314,19.4256937 C139.324086,18.2052672 138.979564,16.845521 138.979564,15.3464144 C138.979564,13.8473078 139.349797,12.4875617 140.090272,11.2671351 C140.830748,10.0467086 141.854029,9.08575726 143.160145,8.38425225 C144.466262,7.68274724 145.911196,7.332 147.494991,7.332 Z M147.495057,20.332 C148.527926,20.332 149.462659,20.0924468 150.299283,19.6133333 C151.135907,19.1342198 151.791769,18.4791153 152.266888,17.648 C152.742008,16.8168847 152.979564,15.8831163 152.979564,14.8466667 C152.979564,13.810217 152.742008,12.8715598 152.266888,12.0306667 C151.791769,11.1897736 151.135907,10.5297802 150.299283,10.0506667 C149.462659,9.57155316 148.527926,9.332 147.495057,9.332 C146.462188,9.332 145.527456,9.57155316 144.690832,10.0506667 C143.854208,10.5297802 143.193182,11.1897736 142.707734,12.0306667 C142.222285,12.8715598 141.979564,13.810217 141.979564,14.8466667 C141.979564,15.8831163 142.222285,16.8168847 142.707734,17.648 C143.193182,18.4791153 143.854208,19.1342198 144.690832,19.6133333 C145.527456,20.0924468 146.462188,20.332 147.495057,20.332 Z M173.041946,7.47812452 C173.667028,7.71192493 173.979564,8.09184489 173.979564,8.61789581 C173.979564,8.81272948 173.919074,9.04652638 173.79809,9.31929352 L164.542892,29.426028 C164.300924,30.0300123 163.907734,30.332 163.363307,30.332 C163.161668,30.332 162.919705,30.2735508 162.637409,30.1566506 C162.032492,29.9033668 161.730037,29.5234468 161.730037,29.0168793 C161.730037,28.7830789 161.790528,28.549282 161.911512,28.3154816 L164.936086,21.739878 L158.130793,9.26084371 C158.029974,9.08549341 157.979564,8.88092112 157.979564,8.64712071 C157.979564,8.39383694 158.060219,8.16004004 158.22153,7.945723 C158.382842,7.73140596 158.59456,7.56579982 158.856691,7.44889962 C159.038167,7.37096615 159.239803,7.332 159.461606,7.332 C160.026196,7.332 160.449632,7.60476305 160.731927,8.15029733 L166.266899,18.7881626 L171.136464,8.17952224 C171.398595,7.61450459 171.791786,7.332 172.316048,7.332 C172.57818,7.332 172.820143,7.38070769 173.041946,7.47812452 Z" id="podplay-copy" fill="#141617" fill-rule="nonzero"></path>
            <path d="M187.727273,13.6410587 L175.909091,13.6410587 C175.407273,13.6410587 175,14.3115587 175,15.1410587 C175,15.9705587 175.407273,16.6410587 175.909091,16.6410587 L187.727273,16.6410587 C188.229091,16.6410587 188.636364,15.9705587 188.636364,15.1410587 C188.636364,14.3115587 188.229091,13.6410587 187.727273,13.6410587 Z" id="Path" fill="#141617"></path>
        </g>
    </g>
</svg>