<?xml version="1.0" encoding="UTF-8"?>
<svg width="113px" height="81px" viewBox="0 0 113 81" version="1.1" xmlns="http://www.w3.org/2000/svg" xmlns:xlink="http://www.w3.org/1999/xlink">
    <!-- Generator: Sketch 53.2 (72643) - https://sketchapp.com -->
    <title>Group 4</title>
    <desc>Created with Sketch.</desc>
    <defs>
        <path d="M71.3233333,28 L71.3233333,22.78125 C71.3233333,21.3814687 72.4582667,20.25 73.8566667,20.25 C75.2550667,20.25 76.39,21.3814687 76.39,22.78125 L76.39,28 L71.3233333,28 Z M71.3233333,52 L76.39,52 L76.39,58.21875 C76.39,59.6185312 75.2550667,60.75 73.8566667,60.75 C72.4582667,60.75 71.3233333,59.6185312 71.3233333,58.21875 L71.3233333,52 Z M20.6566667,28 L20.6566667,22.78125 C20.6566667,21.3814687 21.7916,20.25 23.19,20.25 C24.5884,20.25 25.7233333,21.3814687 25.7233333,22.78125 L25.7233333,28 L20.6566667,28 Z M20.6566667,52 L25.7233333,52 L25.7233333,58.21875 C25.7233333,59.6185312 24.5884,60.75 23.19,60.75 C21.7916,60.75 20.6566667,59.6185312 20.6566667,58.21875 L20.6566667,52 Z M0.39,28 L0.39,22.90625 C0.39,21.5064687 1.52493333,20.375 2.92333333,20.375 C4.32173333,20.375 5.45666667,21.5064687 5.45666667,22.90625 L5.45666667,28 L0.39,28 Z M0.39,52 L5.45666667,52 L5.45666667,58.09375 C5.45666667,59.4935312 4.32173333,60.625 2.92333333,60.625 C1.52493333,60.625 0.39,59.4935312 0.39,58.09375 L0.39,52 Z M61.19,28 L61.19,12.65625 C61.19,11.2564687 62.3249333,10.125 63.7233333,10.125 C65.1217333,10.125 66.2566667,11.2564687 66.2566667,12.65625 L66.2566667,28 L61.19,28 Z M61.19,52 L66.2566667,52 L66.2566667,68.34375 C66.2566667,69.7435312 65.1217333,70.875 63.7233333,70.875 C62.3249333,70.875 61.19,69.7435312 61.19,68.34375 L61.19,52 Z M40.9233333,28 L40.9233333,12.65625 C40.9233333,11.2564687 42.0582667,10.125 43.4566667,10.125 C44.8550667,10.125 45.99,11.2564687 45.99,12.65625 L45.99,28 L40.9233333,28 Z M40.9233333,52 L45.99,52 L45.99,68.34375 C45.99,69.7435312 44.8550667,70.875 43.4566667,70.875 C42.0582667,70.875 40.9233333,69.7435312 40.9233333,68.34375 L40.9233333,52 Z M10.5233333,28 L10.5233333,12.65625 C10.5233333,11.2564687 11.6582667,10.125 13.0566667,10.125 C14.4550667,10.125 15.59,11.2564687 15.59,12.65625 L15.59,28 L10.5233333,28 Z M10.5233333,52 L15.59,52 L15.59,68.34375 C15.59,69.7435312 14.4550667,70.875 13.0566667,70.875 C11.6582667,70.875 10.5233333,69.7435312 10.5233333,68.34375 L10.5233333,52 Z M51.0566667,28 L51.0566667,2.53125 C51.0566667,1.13146875 52.1916,0 53.59,0 C54.9884,0 56.1233333,1.13146875 56.1233333,2.53125 L56.1233333,28 L51.0566667,28 Z M51.0566667,52 L56.1233333,52 L56.1233333,78.46875 C56.1233333,79.8685312 54.9884,81 53.59,81 C52.1916,81 51.0566667,79.8685312 51.0566667,78.46875 L51.0566667,52 Z M35.8566667,28 L30.79,28 L30.79,2.53125 C30.79,1.13146875 31.9249333,0 33.3233333,0 C34.7217333,0 35.8566667,1.13146875 35.8566667,2.53125 L35.8566667,28 Z M35.8566667,52 L35.8566667,78.46875 C35.8566667,79.8685312 34.7217333,81 33.3233333,81 C31.9249333,81 30.79,79.8685312 30.79,78.46875 L30.79,52 L35.8566667,52 Z" id="path-1"></path>
    </defs>
    <g id="Page-1" stroke="none" stroke-width="1" fill="none" fill-rule="evenodd">
        <g id="Group-4" transform="translate(0.390000, 0.000000)">
            <path d="M7.63636364,37 L2.54545455,37 C1.14036364,37 0,38.1175 0,39.5 C0,40.8825 1.14036364,42 2.54545455,42 L7.63636364,42 C9.04145455,42 10.1818182,40.8825 10.1818182,39.5 C10.1818182,38.1175 9.04145455,37 7.63636364,37 Z M109.454545,37 L104.363636,37 C102.958545,37 101.818182,38.1175 101.818182,39.5 C101.818182,40.8825 102.958545,42 104.363636,42 L109.454545,42 C110.859636,42 112,40.8825 112,39.5 C112,38.1175 110.859636,37 109.454545,37 Z" id="Shape" fill="#000000" fill-rule="nonzero"></path>
            <g id="Rectangle" transform="translate(17.610000, 0.000000)">
                <mask id="mask-2" fill="white">
                    <use xlink:href="#path-1"></use>
                </mask>
                <use id="Combined-Shape" fill="#000000" fill-rule="nonzero" xlink:href="#path-1"></use>
            </g>
            <path d="M27.45,36.184 C28.2713374,36.184 29.0206633,36.3786647 29.698,36.768 C30.3753367,37.1573353 30.9059981,37.6906633 31.29,38.368 C31.6740019,39.0453367 31.866,39.7999958 31.866,40.632 C31.866,41.4640042 31.6873351,42.2186633 31.33,42.896 C30.9726649,43.5733367 30.4820031,44.1039981 29.858,44.488 C29.2339969,44.8720019 28.5380038,45.064 27.77,45.064 C27.1513302,45.064 26.575336,44.9360013 26.042,44.68 C25.508664,44.4239987 25.0553352,44.066669 24.682,43.608 L24.682,47.928 C24.682,48.1733346 24.6073341,48.3706659 24.458,48.52 C24.3086659,48.6693341 24.1113346,48.744 23.866,48.744 C23.6313322,48.744 23.4366674,48.6693341 23.282,48.52 C23.1273326,48.3706659 23.05,48.1733346 23.05,47.928 L23.05,40.632 C23.05,39.7999958 23.2446647,39.0453367 23.634,38.368 C24.0233353,37.6906633 24.55133,37.1573353 25.218,36.768 C25.88467,36.3786647 26.6286626,36.184 27.45,36.184 Z M27.45,43.624 C27.983336,43.624 28.4659978,43.4933346 28.898,43.232 C29.3300022,42.9706654 29.6713321,42.6133356 29.922,42.16 C30.1726679,41.7066644 30.298,41.1973362 30.298,40.632 C30.298,40.0666638 30.1726679,39.554669 29.922,39.096 C29.6713321,38.637331 29.3300022,38.2773346 28.898,38.016 C28.4659978,37.7546654 27.983336,37.624 27.45,37.624 C26.916664,37.624 26.4340022,37.7546654 26.002,38.016 C25.5699978,38.2773346 25.2313346,38.637331 24.986,39.096 C24.7406654,39.554669 24.618,40.0666638 24.618,40.632 C24.618,41.1973362 24.7406654,41.7066644 24.986,42.16 C25.2313346,42.6133356 25.5699978,42.9706654 26.002,43.232 C26.4340022,43.4933346 26.916664,43.624 27.45,43.624 Z M38.266,45.064 C37.4126624,45.064 36.6500034,44.8746686 35.978,44.496 C35.3059966,44.1173314 34.7833352,43.5920034 34.41,42.92 C34.0366648,42.2479966 33.85,41.4853376 33.85,40.632 C33.85,39.7679957 34.0366648,39.0000034 34.41,38.328 C34.7833352,37.6559966 35.3059966,37.1306686 35.978,36.752 C36.6500034,36.3733314 37.4126624,36.184 38.266,36.184 C39.1086709,36.184 39.86333,36.3733314 40.53,36.752 C41.19667,37.1306686 41.7193314,37.6559966 42.098,38.328 C42.4766686,39.0000034 42.666,39.7679957 42.666,40.632 C42.666,41.4853376 42.4793352,42.2479966 42.106,42.92 C41.7326648,43.5920034 41.21267,44.1173314 40.546,44.496 C39.87933,44.8746686 39.1193376,45.064 38.266,45.064 Z M38.266,43.624 C38.8100027,43.624 39.2979978,43.4960013 39.73,43.24 C40.1620022,42.9839987 40.4979988,42.6293356 40.738,42.176 C40.9780012,41.7226644 41.098,41.2080029 41.098,40.632 C41.098,40.0559971 40.9780012,39.538669 40.738,39.08 C40.4979988,38.621331 40.1620022,38.2640013 39.73,38.008 C39.2979978,37.7519987 38.8100027,37.624 38.266,37.624 C37.7219973,37.624 37.2340022,37.7519987 36.802,38.008 C36.3699978,38.2640013 36.0313346,38.621331 35.786,39.08 C35.5406654,39.538669 35.418,40.0559971 35.418,40.632 C35.418,41.2080029 35.5406654,41.7226644 35.786,42.176 C36.0313346,42.6293356 36.3699978,42.9839987 36.802,43.24 C37.2340022,43.4960013 37.7219973,43.624 38.266,43.624 Z M52.65,32.504 C52.8953346,32.504 53.0926659,32.5786659 53.242,32.728 C53.3913341,32.8773341 53.466,33.0746654 53.466,33.32 L53.466,40.616 C53.466,41.4480042 53.2713353,42.2026633 52.882,42.88 C52.4926647,43.5573367 51.96467,44.0906647 51.298,44.48 C50.63133,44.8693353 49.8873374,45.064 49.066,45.064 C48.2446626,45.064 47.4953367,44.8693353 46.818,44.48 C46.1406633,44.0906647 45.6100019,43.5573367 45.226,42.88 C44.8419981,42.2026633 44.65,41.4480042 44.65,40.616 C44.65,39.7839958 44.8286649,39.0293367 45.186,38.352 C45.5433351,37.6746633 46.0339969,37.1440019 46.658,36.76 C47.2820031,36.3759981 47.9779962,36.184 48.746,36.184 C49.3646698,36.184 49.940664,36.3119987 50.474,36.568 C51.007336,36.8240013 51.4606648,37.181331 51.834,37.64 L51.834,33.32 C51.834,33.0746654 51.9113326,32.8773341 52.066,32.728 C52.2206674,32.5786659 52.4153322,32.504 52.65,32.504 Z M49.066,43.624 C49.599336,43.624 50.0819978,43.4933346 50.514,43.232 C50.9460022,42.9706654 51.2846654,42.610669 51.53,42.152 C51.7753346,41.693331 51.898,41.1813362 51.898,40.616 C51.898,40.0506638 51.7753346,39.5413356 51.53,39.088 C51.2846654,38.6346644 50.9460022,38.2773346 50.514,38.016 C50.0819978,37.7546654 49.599336,37.624 49.066,37.624 C48.532664,37.624 48.0500022,37.7546654 47.618,38.016 C47.1859978,38.2773346 46.8446679,38.6346644 46.594,39.088 C46.3433321,39.5413356 46.218,40.0506638 46.218,40.616 C46.218,41.1813362 46.3433321,41.693331 46.594,42.152 C46.8446679,42.610669 47.1859978,42.9706654 47.618,43.232 C48.0500022,43.4933346 48.532664,43.624 49.066,43.624 Z M60.746,36.184 C61.5673374,36.184 62.3166633,36.3786647 62.994,36.768 C63.6713367,37.1573353 64.2019981,37.6906633 64.586,38.368 C64.9700019,39.0453367 65.162,39.7999958 65.162,40.632 C65.162,41.4640042 64.9833351,42.2186633 64.626,42.896 C64.2686649,43.5733367 63.7780031,44.1039981 63.154,44.488 C62.5299969,44.8720019 61.8340038,45.064 61.066,45.064 C60.4473302,45.064 59.871336,44.9360013 59.338,44.68 C58.804664,44.4239987 58.3513352,44.066669 57.978,43.608 L57.978,47.928 C57.978,48.1733346 57.9033341,48.3706659 57.754,48.52 C57.6046659,48.6693341 57.4073346,48.744 57.162,48.744 C56.9273322,48.744 56.7326674,48.6693341 56.578,48.52 C56.4233326,48.3706659 56.346,48.1733346 56.346,47.928 L56.346,40.632 C56.346,39.7999958 56.5406647,39.0453367 56.93,38.368 C57.3193353,37.6906633 57.84733,37.1573353 58.514,36.768 C59.18067,36.3786647 59.9246626,36.184 60.746,36.184 Z M60.746,43.624 C61.279336,43.624 61.7619978,43.4933346 62.194,43.232 C62.6260022,42.9706654 62.9673321,42.6133356 63.218,42.16 C63.4686679,41.7066644 63.594,41.1973362 63.594,40.632 C63.594,40.0666638 63.4686679,39.554669 63.218,39.096 C62.9673321,38.637331 62.6260022,38.2773346 62.194,38.016 C61.7619978,37.7546654 61.279336,37.624 60.746,37.624 C60.212664,37.624 59.7300022,37.7546654 59.298,38.016 C58.8659978,38.2773346 58.5273346,38.637331 58.282,39.096 C58.0366654,39.554669 57.914,40.0666638 57.914,40.632 C57.914,41.1973362 58.0366654,41.7066644 58.282,42.16 C58.5273346,42.6133356 58.8659978,42.9706654 59.298,43.232 C59.7300022,43.4933346 60.212664,43.624 60.746,43.624 Z M69.674,45 C69.215331,45 68.8020018,44.8746679 68.434,44.624 C68.0659982,44.3733321 67.7806677,44.0213356 67.578,43.568 C67.3753323,43.1146644 67.274,42.6053362 67.274,42.04 L67.274,33.304 C67.274,33.0693322 67.3486659,32.8773341 67.498,32.728 C67.6473341,32.5786659 67.8393322,32.504 68.074,32.504 C68.3086678,32.504 68.5006659,32.5786659 68.65,32.728 C68.7993341,32.8773341 68.874,33.0693322 68.874,33.304 L68.874,42.04 C68.874,42.4346686 68.9486659,42.7599987 69.098,43.016 C69.2473341,43.2720013 69.4393322,43.4 69.674,43.4 L70.074,43.4 C70.2873344,43.4 70.460666,43.4746659 70.594,43.624 C70.727334,43.7733341 70.794,43.9653322 70.794,44.2 C70.794,44.4346678 70.6926677,44.6266659 70.49,44.776 C70.2873323,44.9253341 70.0260016,45 69.706,45 L69.674,45 Z M75.882,36.184 C76.7033374,36.184 77.44733,36.3786647 78.114,36.768 C78.78067,37.1573353 79.3086647,37.6906633 79.698,38.368 C80.0873353,39.0453367 80.282,39.7999958 80.282,40.632 L80.282,44.2 C80.282,44.4346678 80.2046674,44.6293326 80.05,44.784 C79.8953326,44.9386674 79.7006678,45.016 79.466,45.016 C79.2313322,45.016 79.0366674,44.9386674 78.882,44.784 C78.7273326,44.6293326 78.65,44.4346678 78.65,44.2 L78.65,43.608 C78.2766648,44.066669 77.823336,44.4239987 77.29,44.68 C76.756664,44.9360013 76.1806698,45.064 75.562,45.064 C74.7939962,45.064 74.0980031,44.8720019 73.474,44.488 C72.8499969,44.1039981 72.3593351,43.5733367 72.002,42.896 C71.6446649,42.2186633 71.466,41.4640042 71.466,40.632 C71.466,39.7999958 71.6579981,39.0453367 72.042,38.368 C72.4260019,37.6906633 72.9566633,37.1573353 73.634,36.768 C74.3113367,36.3786647 75.0606626,36.184 75.882,36.184 Z M75.882,43.624 C76.415336,43.624 76.8979978,43.4933346 77.33,43.232 C77.7620022,42.9706654 78.1006654,42.6133356 78.346,42.16 C78.5913346,41.7066644 78.714,41.1973362 78.714,40.632 C78.714,40.0666638 78.5913346,39.554669 78.346,39.096 C78.1006654,38.637331 77.7620022,38.2773346 77.33,38.016 C76.8979978,37.7546654 76.415336,37.624 75.882,37.624 C75.348664,37.624 74.8660022,37.7546654 74.434,38.016 C74.0019978,38.2773346 73.6606679,38.637331 73.41,39.096 C73.1593321,39.554669 73.034,40.0666638 73.034,40.632 C73.034,41.1973362 73.1593321,41.7066644 73.41,42.16 C73.6606679,42.6133356 74.0019978,42.9706654 74.434,43.232 C74.8660022,43.4933346 75.348664,43.624 75.882,43.624 Z M89.402,36.328 C89.7326683,36.4560006 89.898,36.6639986 89.898,36.952 C89.898,37.0586672 89.8660003,37.1866659 89.802,37.336 L84.906,48.344 C84.7779994,48.6746683 84.5700014,48.84 84.282,48.84 C84.1753328,48.84 84.0473341,48.8080003 83.898,48.744 C83.5779984,48.6053326 83.418,48.3973347 83.418,48.12 C83.418,47.9919994 83.4499997,47.8640006 83.514,47.736 L85.114,44.136 L81.514,37.304 C81.4606664,37.2079995 81.434,37.0960006 81.434,36.968 C81.434,36.8293326 81.4766662,36.7013339 81.562,36.584 C81.6473338,36.4666661 81.7593326,36.3760003 81.898,36.312 C81.9940005,36.2693331 82.1006661,36.248 82.218,36.248 C82.5166682,36.248 82.7406659,36.3973318 82.89,36.696 L85.818,42.52 L88.394,36.712 C88.5326674,36.4026651 88.7406653,36.248 89.018,36.248 C89.1566674,36.248 89.2846661,36.2746664 89.402,36.328 Z" id="podplay" fill="#141617" fill-rule="nonzero"></path>
        </g>
    </g>
</svg>