<?xml version="1.0" encoding="UTF-8"?>
<svg width="128px" height="78px" viewBox="0 0 128 78" version="1.1" xmlns="http://www.w3.org/2000/svg" xmlns:xlink="http://www.w3.org/1999/xlink">
    <!-- Generator: Sketch 53.2 (72643) - https://sketchapp.com -->
    <title>Group 5</title>
    <desc>Created with Sketch.</desc>
    <g id="Page-1" stroke="none" stroke-width="1" fill="none" fill-rule="evenodd">
        <g id="Group-5" transform="translate(1.000000, 0.000000)" fill-rule="nonzero">
            <g id="levels" transform="translate(37.000000, 0.000000)" fill="#000000">
                <path d="M4.16786126,17 L1.84967944,17 C1.20986126,17 0.690588533,17.6705 0.690588533,18.5 C0.690588533,19.3295 1.20986126,20 1.84967944,20 L4.16786126,20 C4.80767944,20 5.32695217,19.3295 5.32695217,18.5 C5.32695217,17.6705 4.80767944,17 4.16786126,17 Z M50.5314976,17 L48.2133158,17 C47.5734976,17 47.0542249,17.6705 47.0542249,18.5 C47.0542249,19.3295 47.5734976,20 48.2133158,20 L50.5314976,20 C51.1713158,20 51.6905885,19.3295 51.6905885,18.5 C51.6905885,17.6705 51.1713158,17 50.5314976,17 Z" id="Shape"></path>
                <path d="M41.5572552,9.25 C40.9316552,9.25 40.4239219,9.76684375 40.4239219,10.40625 L40.4239219,26.59375 C40.4239219,27.2331562 40.9316552,27.75 41.5572552,27.75 C42.1828552,27.75 42.6905885,27.2331562 42.6905885,26.59375 L42.6905885,10.40625 C42.6905885,9.76684375 42.1828552,9.25 41.5572552,9.25 Z M18.8905885,9.25 C18.2649885,9.25 17.7572552,9.76684375 17.7572552,10.40625 L17.7572552,26.59375 C17.7572552,27.2331562 18.2649885,27.75 18.8905885,27.75 C19.5161885,27.75 20.0239219,27.2331562 20.0239219,26.59375 L20.0239219,10.40625 C20.0239219,9.76684375 19.5161885,9.25 18.8905885,9.25 Z M9.82392187,13.875 C9.19832187,13.875 8.69058853,14.3918437 8.69058853,15.03125 L8.69058853,21.96875 C8.69058853,22.6081562 9.19832187,23.125 9.82392187,23.125 C10.4495219,23.125 10.9572552,22.6081562 10.9572552,21.96875 L10.9572552,15.03125 C10.9572552,14.3918437 10.4495219,13.875 9.82392187,13.875 Z M37.0239219,4.625 C36.3983219,4.625 35.8905885,5.14184375 35.8905885,5.78125 L35.8905885,31.21875 C35.8905885,31.8581562 36.3983219,32.375 37.0239219,32.375 C37.6495219,32.375 38.1572552,31.8581562 38.1572552,31.21875 L38.1572552,5.78125 C38.1572552,5.14184375 37.6495219,4.625 37.0239219,4.625 Z M27.9572552,4.625 C27.3316552,4.625 26.8239219,5.14184375 26.8239219,5.78125 L26.8239219,31.21875 C26.8239219,31.8581562 27.3316552,32.375 27.9572552,32.375 C28.5828552,32.375 29.0905885,31.8581562 29.0905885,31.21875 L29.0905885,5.78125 C29.0905885,5.14184375 28.5828552,4.625 27.9572552,4.625 Z M14.3572552,4.625 C13.7316552,4.625 13.2239219,5.14184375 13.2239219,5.78125 L13.2239219,31.21875 C13.2239219,31.8581562 13.7316552,32.375 14.3572552,32.375 C14.9828552,32.375 15.4905885,31.8581562 15.4905885,31.21875 L15.4905885,5.78125 C15.4905885,5.14184375 14.9828552,4.625 14.3572552,4.625 Z M32.4905885,0 C31.8649885,0 31.3572552,0.51684375 31.3572552,1.15625 L31.3572552,35.84375 C31.3572552,36.4831562 31.8649885,37 32.4905885,37 C33.1161885,37 33.6239219,36.4831562 33.6239219,35.84375 L33.6239219,1.15625 C33.6239219,0.51684375 33.1161885,0 32.4905885,0 Z M23.4239219,0 C22.7983219,0 22.2905885,0.51684375 22.2905885,1.15625 L22.2905885,35.84375 C22.2905885,36.4831562 22.7983219,37 23.4239219,37 C24.0495219,37 24.5572552,36.4831562 24.5572552,35.84375 L24.5572552,1.15625 C24.5572552,0.51684375 24.0495219,0 23.4239219,0 Z" id="Shape"></path>
            </g>
            <path d="M8.464138,53.332 C10.047933,53.332 11.4928671,53.688472 12.7989837,54.4014268 C14.1051004,55.1143815 15.1283811,56.0910172 15.8688567,57.3313631 C16.6093323,58.571709 16.9795645,59.9536484 16.9795645,61.4772229 C16.9795645,63.0007974 16.6350428,64.3827369 15.9459892,65.6230828 C15.2569355,66.8634287 14.3107865,67.8351812 13.1075137,68.5383694 C11.9042409,69.2415577 10.562149,69.5931465 9.08119789,69.5931465 C7.88820947,69.5931465 6.77751277,69.3587539 5.74907448,68.8899618 C4.72063618,68.4211696 3.84647675,67.7668237 3.12656994,66.9269045 L3.12656994,74.8377325 C3.12656994,75.2869916 2.98259074,75.6483468 2.69462802,75.9218089 C2.40666529,76.195271 2.02614883,76.332 1.55306722,76.332 C1.10055437,76.332 0.725180023,76.195271 0.426932917,75.9218089 C0.128685812,75.6483468 -0.0204355038,75.2869916 -0.0204355038,74.8377325 L-0.0204355038,61.4772229 C-0.0204355038,59.9536484 0.354938843,58.571709 1.1056988,57.3313631 C1.85645875,56.0910172 2.87459739,55.1143815 4.16014526,54.4014268 C5.44569313,53.688472 6.88034303,53.332 8.464138,53.332 Z M8.46407154,67.332 C9.49694055,67.332 10.431673,67.0924468 11.2682969,66.6133333 C12.1049208,66.1342198 12.765947,65.4791153 13.2513955,64.648 C13.7368439,63.8168847 13.9795645,62.8831163 13.9795645,61.8466667 C13.9795645,60.810217 13.7368439,59.8715598 13.2513955,59.0306667 C12.765947,58.1897736 12.1049208,57.5297802 11.2682969,57.0506667 C10.431673,56.5715532 9.49694055,56.332 8.46407154,56.332 C7.43120252,56.332 6.49647009,56.5715532 5.65984619,57.0506667 C4.82322228,57.5297802 4.1673603,58.1897736 3.69224055,59.0306667 C3.21712081,59.8715598 2.9795645,60.810217 2.9795645,61.8466667 C2.9795645,62.8831163 3.21712081,63.8168847 3.69224055,64.648 C4.1673603,65.4791153 4.82322228,66.1342198 5.65984619,66.6133333 C6.49647009,67.0924468 7.43120252,67.332 8.46407154,67.332 Z M28.494991,70.332 C26.8494897,70.332 25.378845,69.9908623 24.0830128,69.3085766 C22.7871805,68.6262909 21.7793261,67.6797538 21.0594193,66.4689369 C20.3395125,65.2581201 19.9795645,63.8839596 19.9795645,62.3464144 C19.9795645,60.7896499 20.3395125,59.4058799 21.0594193,58.1950631 C21.7793261,56.9842462 22.7871805,56.0377091 24.0830128,55.3554234 C25.378845,54.6731377 26.8494897,54.332 28.494991,54.332 C30.1199235,54.332 31.5751419,54.6731377 32.8606897,55.3554234 C34.1462376,56.0377091 35.154092,56.9842462 35.8842832,58.1950631 C36.6144744,59.4058799 36.9795645,60.7896499 36.9795645,62.3464144 C36.9795645,63.8839596 36.6196165,65.2581201 35.8997097,66.4689369 C35.1798029,67.6797538 34.1770906,68.6262909 32.8915427,69.3085766 C31.6059949,69.9908623 30.1404923,70.332 28.494991,70.332 Z M28.4950575,67.332 C29.5485838,67.332 30.4936448,67.0973357 31.3302687,66.628 C32.1668926,66.1586643 32.8175903,65.5084486 33.2823814,64.6773333 C33.7471725,63.8462181 33.9795645,62.9026719 33.9795645,61.8466667 C33.9795645,60.7906614 33.7471725,59.8422264 33.2823814,59.0013333 C32.8175903,58.1604402 32.1668926,57.5053357 31.3302687,57.036 C30.4936448,56.5666643 29.5485838,56.332 28.4950575,56.332 C27.4415311,56.332 26.4964701,56.5666643 25.6598462,57.036 C24.8232223,57.5053357 24.1673603,58.1604402 23.6922406,59.0013333 C23.2171208,59.8422264 22.9795645,60.7906614 22.9795645,61.8466667 C22.9795645,62.9026719 23.2171208,63.8462181 23.6922406,64.6773333 C24.1673603,65.5084486 24.8232223,66.1586643 25.6598462,66.628 C26.4964701,67.0973357 27.4415311,67.332 28.4950575,67.332 Z M56.4060618,47.332 C56.8791434,47.332 57.2596599,47.468729 57.5476226,47.7421911 C57.8355853,48.0156532 57.9795645,48.3770084 57.9795645,48.8262675 L57.9795645,62.1867771 C57.9795645,63.7103516 57.6041901,65.092291 56.8534302,66.3326369 C56.1026702,67.5729828 55.0845316,68.5496185 53.7989837,69.2625732 C52.5134359,69.975528 51.078786,70.332 49.494991,70.332 C47.911196,70.332 46.4662619,69.975528 45.1601453,69.2625732 C43.8540286,68.5496185 42.8307479,67.5729828 42.0902723,66.3326369 C41.3497967,65.092291 40.9795645,63.7103516 40.9795645,62.1867771 C40.9795645,60.6632026 41.3240862,59.2812631 42.0131398,58.0409172 C42.7021935,56.8005713 43.6483425,55.8288188 44.8516153,55.1256306 C46.0548881,54.4224423 47.39698,54.0708535 48.8779311,54.0708535 C50.0709195,54.0708535 51.1816162,54.3052461 52.2100545,54.7740382 C53.2384928,55.2428304 54.1126522,55.8971763 54.8325591,56.7370955 L54.8325591,48.8262675 C54.8325591,48.3770084 54.9816804,48.0156532 55.2799275,47.7421911 C55.5781746,47.468729 55.9535489,47.332 56.4060618,47.332 Z M49.4950575,67.332 C50.5279265,67.332 51.4626589,67.0924468 52.2992828,66.6133333 C53.1359067,66.1342198 53.7917687,65.4742264 54.2668884,64.6333333 C54.7420082,63.7924402 54.9795645,62.853783 54.9795645,61.8173333 C54.9795645,60.7808837 54.7420082,59.8471153 54.2668884,59.016 C53.7917687,58.1848847 53.1359067,57.5297802 52.2992828,57.0506667 C51.4626589,56.5715532 50.5279265,56.332 49.4950575,56.332 C48.4621884,56.332 47.527456,56.5715532 46.6908321,57.0506667 C45.8542082,57.5297802 45.1931819,58.1848847 44.7077335,59.016 C44.2222851,59.8471153 43.9795645,60.7808837 43.9795645,61.8173333 C43.9795645,62.853783 44.2222851,63.7924402 44.7077335,64.6333333 C45.1931819,65.4742264 45.8542082,66.1342198 46.6908321,66.6133333 C47.527456,67.0924468 48.4621884,67.332 49.4950575,67.332 Z M71.464138,53.332 C73.047933,53.332 74.4928671,53.688472 75.7989837,54.4014268 C77.1051004,55.1143815 78.1283811,56.0910172 78.8688567,57.3313631 C79.6093323,58.571709 79.9795645,59.9536484 79.9795645,61.4772229 C79.9795645,63.0007974 79.6350428,64.3827369 78.9459892,65.6230828 C78.2569355,66.8634287 77.3107865,67.8351812 76.1075137,68.5383694 C74.9042409,69.2415577 73.562149,69.5931465 72.0811979,69.5931465 C70.8882095,69.5931465 69.7775128,69.3587539 68.7490745,68.8899618 C67.7206362,68.4211696 66.8464767,67.7668237 66.1265699,66.9269045 L66.1265699,74.8377325 C66.1265699,75.2869916 65.9825907,75.6483468 65.694628,75.9218089 C65.4066653,76.195271 65.0261488,76.332 64.5530672,76.332 C64.1005544,76.332 63.72518,76.195271 63.4269329,75.9218089 C63.1286858,75.6483468 62.9795645,75.2869916 62.9795645,74.8377325 L62.9795645,61.4772229 C62.9795645,59.9536484 63.3549388,58.571709 64.1056988,57.3313631 C64.8564588,56.0910172 65.8745974,55.1143815 67.1601453,54.4014268 C68.4456931,53.688472 69.880343,53.332 71.464138,53.332 Z M71.4640715,67.332 C72.4969406,67.332 73.431673,67.0924468 74.2682969,66.6133333 C75.1049208,66.1342198 75.765947,65.4791153 76.2513955,64.648 C76.7368439,63.8168847 76.9795645,62.8831163 76.9795645,61.8466667 C76.9795645,60.810217 76.7368439,59.8715598 76.2513955,59.0306667 C75.765947,58.1897736 75.1049208,57.5297802 74.2682969,57.0506667 C73.431673,56.5715532 72.4969406,56.332 71.4640715,56.332 C70.4312025,56.332 69.4964701,56.5715532 68.6598462,57.0506667 C67.8232223,57.5297802 67.1673603,58.1897736 66.6922406,59.0306667 C66.2171208,59.8715598 65.9795645,60.810217 65.9795645,61.8466667 C65.9795645,62.8831163 66.2171208,63.8168847 66.6922406,64.648 C67.1673603,65.4791153 67.8232223,66.1342198 68.6598462,66.6133333 C69.4964701,67.0924468 70.4312025,67.332 71.4640715,67.332 Z M88.7522918,70.332 C87.840166,70.332 87.0182045,70.1013152 86.2863827,69.6399385 C85.5545608,69.1785619 84.9871423,68.5306811 84.58411,67.6962766 C84.1810776,66.8618721 83.9795645,65.9244081 83.9795645,64.8838566 L83.9795645,48.8044712 C83.9795645,48.3725441 84.1280479,48.0191546 84.425019,47.7442919 C84.7219902,47.4694293 85.1038046,47.332 85.5704736,47.332 C86.0371426,47.332 86.418957,47.4694293 86.7159281,47.7442919 C87.0128993,48.0191546 87.1613827,48.3725441 87.1613827,48.8044712 L87.1613827,64.8838566 C87.1613827,65.6102793 87.309866,66.2090783 87.6068372,66.6802714 C87.9038084,67.1514646 88.2856228,67.3870576 88.7522918,67.3870576 L89.5477463,67.3870576 C89.9719909,67.3870576 90.3166844,67.5244869 90.5818372,67.7993496 C90.8469901,68.0742122 90.9795645,68.4276018 90.9795645,68.8595288 C90.9795645,69.2914559 90.7780514,69.6448454 90.375019,69.9197081 C89.9719867,70.1945707 89.452295,70.332 88.8159281,70.332 L88.7522918,70.332 Z M100.494991,54.332 C102.078786,54.332 103.513436,54.6827472 104.798984,55.3842523 C106.084532,56.0857573 107.10267,57.0467086 107.85343,58.2671351 C108.60419,59.4875617 108.979564,60.8473078 108.979564,62.3464144 L108.979564,68.7752432 C108.979564,69.1980682 108.830443,69.5488154 108.532196,69.8274955 C108.233949,70.1061756 107.858575,70.2455135 107.406062,70.2455135 C106.953549,70.2455135 106.578175,70.1061756 106.279927,69.8274955 C105.98168,69.5488154 105.832559,69.1980682 105.832559,68.7752432 L105.832559,67.7085766 C105.112652,68.5350071 104.238493,69.1788445 103.210055,69.6401081 C102.181616,70.1013717 101.07092,70.332 99.8779311,70.332 C98.39698,70.332 97.0548881,69.9860575 95.8516153,69.2941622 C94.6483425,68.6022668 93.7021935,67.6461202 93.0131398,66.4256937 C92.3240862,65.2052672 91.9795645,63.845521 91.9795645,62.3464144 C91.9795645,60.8473078 92.3497967,59.4875617 93.0902723,58.2671351 C93.8307479,57.0467086 94.8540286,56.0857573 96.1601453,55.3842523 C97.4662619,54.6827472 98.911196,54.332 100.494991,54.332 Z M100.495057,67.332 C101.527926,67.332 102.462659,67.0924468 103.299283,66.6133333 C104.135907,66.1342198 104.791769,65.4791153 105.266888,64.648 C105.742008,63.8168847 105.979564,62.8831163 105.979564,61.8466667 C105.979564,60.810217 105.742008,59.8715598 105.266888,59.0306667 C104.791769,58.1897736 104.135907,57.5297802 103.299283,57.0506667 C102.462659,56.5715532 101.527926,56.332 100.495057,56.332 C99.4621884,56.332 98.527456,56.5715532 97.6908321,57.0506667 C96.8542082,57.5297802 96.1931819,58.1897736 95.7077335,59.0306667 C95.2222851,59.8715598 94.9795645,60.810217 94.9795645,61.8466667 C94.9795645,62.8831163 95.2222851,63.8168847 95.7077335,64.648 C96.1931819,65.4791153 96.8542082,66.1342198 97.6908321,66.6133333 C98.527456,67.0924468 99.4621884,67.332 100.495057,67.332 Z M126.041946,54.4781245 C126.667028,54.7119249 126.979564,55.0918449 126.979564,55.6178958 C126.979564,55.8127295 126.919074,56.0465264 126.79809,56.3192935 L117.542892,76.426028 C117.300924,77.0300123 116.907734,77.332 116.363307,77.332 C116.161668,77.332 115.919705,77.2735508 115.637409,77.1566506 C115.032492,76.9033668 114.730037,76.5234468 114.730037,76.0168793 C114.730037,75.7830789 114.790528,75.549282 114.911512,75.3154816 L117.936086,68.739878 L111.130793,56.2608437 C111.029974,56.0854934 110.979564,55.8809211 110.979564,55.6471207 C110.979564,55.3938369 111.060219,55.16004 111.22153,54.945723 C111.382842,54.731406 111.59456,54.5657998 111.856691,54.4488996 C112.038167,54.3709661 112.239803,54.332 112.461606,54.332 C113.026196,54.332 113.449632,54.604763 113.731927,55.1502973 L119.266899,65.7881626 L124.136464,55.1795222 C124.398595,54.6145046 124.791786,54.332 125.316048,54.332 C125.57818,54.332 125.820143,54.3807077 126.041946,54.4781245 Z" id="podplay" fill="#141617"></path>
        </g>
    </g>
</svg>